<?xml version="1.0" encoding="utf-8"?>
<!-- Generator: Adobe Illustrator 21.1.0, SVG Export Plug-In . SVG Version: 6.00 Build 0)  -->
<svg xmlns="http://www.w3.org/2000/svg" xmlns:xlink="http://www.w3.org/1999/xlink" x="0px" y="0px"
	 viewBox="0 0 890 86" style="enable-background:new 0 0 890 86;" xml:space="preserve">
<style type="text/css">
	.st0{fill:#227F22;}
	.st1{fill:#57AC57;}
	.st2{fill:#FFFFFF;}
	.st3{fill:#A08513;}
	.st4{fill:#E9C601;}
</style>
<path class="st0" d="M65,6H15C6.8,6,0,12.8,0,21v4v46c0,8.3,6.8,15,15,15h50c8.3,0,15-6.7,15-15V25v-4C80,12.8,73.3,6,65,6z"/>
<path class="st0" d="M155,6h-50c-8.2,0-15,6.7-15,15v4v46c0,8.2,6.7,15,15,15h50c8.3,0,15-6.7,15-15V25v-4C170,12.8,163.3,6,155,6z"
	/>
<path class="st0" d="M245,6h-50c-8.2,0-15,6.7-15,15v4v46c0,8.2,6.7,15,15,15h50c8.3,0,15-6.7,15-15V25v-4C260,12.8,253.3,6,245,6z"
	/>
<path class="st0" d="M335,6h-50c-8.2,0-15,6.7-15,15v4v46c0,8.2,6.7,15,15,15h50c8.3,0,15-6.7,15-15V25v-4C350,12.8,343.3,6,335,6z"
	/>
<path class="st0" d="M425,6h-50c-8.2,0-15,6.7-15,15v4v46c0,8.2,6.7,15,15,15h50c8.3,0,15-6.7,15-15V25v-4C440,12.8,433.3,6,425,6z"
	/>
<path class="st0" d="M515,6h-50c-8.2,0-15,6.7-15,15v5v45c0,8.2,6.7,15,15,15h50c8.3,0,15-6.7,15-15V26v-5C530,12.8,523.3,6,515,6z"
	/>
<path class="st1" d="M65,0H15C6.8,0,0,6.8,0,15v4v46c0,8.3,6.8,15,15,15h50c8.3,0,15-6.7,15-15V19v-4C80,6.8,73.3,0,65,0z"/>
<path class="st1" d="M155,0h-50c-8.2,0-15,6.7-15,15v4v46c0,8.2,6.7,15,15,15h50c8.3,0,15-6.7,15-15V19v-4C170,6.8,163.3,0,155,0z"
	/>
<path class="st1" d="M245,0h-50c-8.2,0-15,6.7-15,15v4v46c0,8.2,6.7,15,15,15h50c8.3,0,15-6.7,15-15V19v-4C260,6.8,253.3,0,245,0z"
	/>
<path class="st1" d="M335,0h-50c-8.2,0-15,6.7-15,15v4v46c0,8.2,6.7,15,15,15h50c8.3,0,15-6.7,15-15V19v-4C350,6.8,343.3,0,335,0z"
	/>
<path class="st1" d="M425,0h-50c-8.2,0-15,6.7-15,15v4v46c0,8.2,6.7,15,15,15h50c8.3,0,15-6.7,15-15V19v-4C440,6.8,433.3,0,425,0z"
	/>
<path class="st1" d="M515,0h-50c-8.2,0-15,6.7-15,15v5v45c0,8.2,6.7,15,15,15h50c8.3,0,15-6.7,15-15V20v-5C530,6.8,523.3,0,515,0z"
	/>
<path class="st2" d="M18,20c1.6,0,3.1,1.1,3.5,2.7l6.4,23.8L35,22.6c0.5-1.6,1.9-2.6,3.5-2.6h4.1c1.6,0,3.1,1.1,3.6,2.6l7.3,23.9
	L60,22.7c0.4-1.6,1.9-2.7,3.5-2.7H66c1.6,0,2.9,1.4,2.9,3c0,0.2-0.1,0.5-0.1,0.8l-10,35.5c-0.5,1.6-1.9,2.7-3.5,2.7H51
	c-1.2,0-2.3-0.8-2.8-2l-8.1-25l-8,25c-0.4,1.2-1.6,2-2.8,2H25c-1.6,0-3.1-1.1-3.5-2.6L11,23.8c-0.1-0.3-0.1-0.6-0.1-0.9
	c0-1.6,1.3-2.9,2.9-2.9H18z"/>
<path class="st2" d="M130.5,19.3c12.8,0,22.3,8.3,22.3,21.7c0,12.7-9.5,21.7-22.3,21.7s-22.3-8.3-22.3-21.7
	C108.2,28.8,117.2,19.3,130.5,19.3z M130.5,53.7c8,0,12.1-5.6,12.1-12.7c0-7.7-5.3-12.7-12.1-12.7c-7,0-12.1,5-12.1,12.7
	C118.4,48.2,123.8,53.7,130.5,53.7z"/>
<path class="st2" d="M219.8,47.3h-3.5v11.9c0,1.5-1.3,2.8-2.8,2.8h-4.1c-1.5,0-2.8-1.3-2.8-2.8V22.8c0-1.5,1.3-2.8,2.8-2.8
	c4.1-0.1,10.6-0.1,11.5-0.1c11.5,0,15.5,5.7,15.5,13.4c0,7.8-4.8,11-7.1,12.1l9.2,12.5c0.4,0.5,0.5,1,0.5,1.5c0,1.3-1.1,2.6-2.6,2.6
	H232c-1.3,0-2.6-0.7-3.3-1.7L219.8,47.3z M219.7,38.3c3.7,0,6.5-1.3,6.5-4.9c0-2.3-1.2-4.6-5.8-4.6c-1.4,0-2.2,0.1-4.2,0.1v9.3h3.5
	V38.3z"/>
<path class="st2" d="M308.1,19.8c16.8,0,23.6,9.7,23.6,20.8c0,11.8-8,21.5-24.1,21.5c-1.8,0-5.8-0.1-10-0.1c-1.5,0-2.8-1.3-2.8-2.8
	V22.8c0-1.6,1.3-2.8,2.8-2.8C301.1,19.9,306,19.8,308.1,19.8z M304.4,53c1.3,0.1,2.1,0.1,3.5,0.1c8.3,0,13.6-4.5,13.6-12.5
	c0-7.7-5.7-11.8-13.5-11.8c-1,0-2.3,0-3.5,0.2v24H304.4z"/>
<path class="st2" d="M417.1,59.2c0,1.5-1.3,2.8-2.8,2.8h-21.2c-1.5,0-2.8-1.3-2.8-2.8V22.8c0-1.5,1.3-2.8,2.8-2.8h4.1
	c1.5,0,2.8,1.3,2.8,2.8V53h14.3c1.5,0,2.8,1.3,2.8,2.8L417.1,59.2L417.1,59.2z"/>
<path class="st2" d="M504.6,59.2c0,1.5-1.3,2.8-2.8,2.8h-20c-1.5,0-2.8-1.3-2.8-2.8V22.8c0-1.5,1.3-2.8,2.8-2.8h19.4
	c1.5,0,2.8,1.3,2.8,2.8v3.5c0,1.5-1.3,2.8-2.8,2.8h-12.5v7.4h10.7c1.5,0,2.8,1.3,2.8,2.8v3.5c0,1.5-1.3,2.8-2.8,2.8h-10.7V53h13.1
	c1.5,0,2.8,1.3,2.8,2.8V59.2z"/>
<path class="st3" d="M605,6h-50c-8.2,0-15,6.7-15,15v4v46c0,8.2,6.7,15,15,15h50c8.3,0,15-6.7,15-15V25v-4C620,12.8,613.3,6,605,6z"
	/>
<path class="st3" d="M695,6h-50c-8.2,0-15,6.7-15,15v4v46c0,8.2,6.7,15,15,15h50c8.3,0,15-6.7,15-15V25v-4C710,12.8,703.3,6,695,6z"
	/>
<path class="st3" d="M785,6h-50c-8.2,0-15,6.7-15,15v4v46c0,8.2,6.7,15,15,15h50c8.3,0,15-6.7,15-15V25v-4C800,12.8,793.3,6,785,6z"
	/>
<path class="st3" d="M875,6h-50c-8.2,0-15,6.7-15,15v5v45c0,8.2,6.7,15,15,15h50c8.3,0,15-6.7,15-15V26v-5C890,12.8,883.3,6,875,6z"
	/>
<path class="st4" d="M605,0h-50c-8.2,0-15,6.7-15,15v4v46c0,8.2,6.7,15,15,15h50c8.3,0,15-6.7,15-15V19v-4C620,6.8,613.3,0,605,0z"
	/>
<path class="st4" d="M695,0h-50c-8.2,0-15,6.7-15,15v4v46c0,8.2,6.7,15,15,15h50c8.3,0,15-6.7,15-15V19v-4C710,6.8,703.3,0,695,0z"
	/>
<path class="st4" d="M785,0h-50c-8.2,0-15,6.7-15,15v4v46c0,8.2,6.7,15,15,15h50c8.3,0,15-6.7,15-15V19v-4C800,6.8,793.3,0,785,0z"
	/>
<path class="st4" d="M875,0h-50c-8.2,0-15,6.7-15,15v5v45c0,8.2,6.7,15,15,15h50c8.3,0,15-6.7,15-15V20v-5C890,6.8,883.3,0,875,0z"
	/>
<path class="st2" d="M584.3,53.6c2.5,0,5.6-1.2,6.6-2.1v-4.6h-6.2c-1.5,0-2.8-1.3-2.8-2.8v-3.5c0-1.5,1.3-2.8,2.8-2.8h12.4
	c1.5,0,2.8,1.3,2.8,2.8v14.3c0,1.5-0.8,2.6-1.6,3.2c-3.8,2.9-9.5,4.6-14.1,4.6c-14.4,0-22.5-8.6-22.5-21.7
	c0-12.1,8.1-21.7,21.3-21.7c5,0,8.3,0.7,11.5,2.5c1.1,0.6,1.7,1.6,1.7,2.6c0,0.4-0.1,0.9-0.4,1.3l-1.6,2.9c-0.6,1-1.5,1.6-2.5,1.6
	c-0.4,0-1-0.1-1.4-0.4c-1.9-0.9-3.8-1.4-6.1-1.4c-6.9,0-12.2,4.1-12.2,12.7C571.9,48.6,576.8,53.6,584.3,53.6z"/>
<path class="st2" d="M662.9,53.1l-2.7,6.8c-0.5,1.2-1.6,2-2.9,2h-3.7c-1.5,0-2.6-1.3-2.6-2.6c0-0.4,0.1-0.7,0.2-1l15.1-36.4
	c0.5-1.2,1.7-2,2.9-2h4.4c1.3,0,2.4,0.8,2.9,2l15.1,36.4c0.1,0.3,0.2,0.7,0.2,1c0,1.3-1.1,2.6-2.6,2.6h-4.3c-1.3,0-2.4-0.8-2.9-2
	l-2.7-6.8H662.9z M666.5,44.1h9.4l-4.7-11.9L666.5,44.1z"/>
<path class="st2" d="M748.2,59.1c0,1.5-1.3,2.8-2.8,2.8h-4.1c-1.5,0-2.8-1.3-2.8-2.8V22.6c0-1.5,1.3-2.8,2.8-2.8h5
	c1.3,0,2.3,0.7,3.1,1.7l11.7,16l11-16c0.7-1.1,1.7-1.7,3-1.7h4.5c1.5,0,2.8,1.3,2.8,2.8v36.5c0,1.5-1.3,2.8-2.8,2.8h-4.1
	c-1.5,0-2.8-1.3-2.8-2.8v-24L764,47.3c-1,1.4-2.3,2.1-3.7,2.1c-1.3,0-2.6-0.7-3.7-2.1l-8.7-12.1v23.9
	C747.9,59.1,748.2,59.1,748.2,59.1z"/>
<path class="st2" d="M863.8,59.1c0,1.5-1.3,2.8-2.8,2.8h-20c-1.5,0-2.8-1.3-2.8-2.8V22.6c0-1.5,1.3-2.8,2.8-2.8h19.4
	c1.5,0,2.8,1.3,2.8,2.8v3.5c0,1.5-1.3,2.8-2.8,2.8h-12.5v7.4h10.7c1.5,0,2.8,1.3,2.8,2.8v3.5c0,1.5-1.3,2.8-2.8,2.8h-10.7V53H861
	c1.5,0,2.8,1.3,2.8,2.8V59.1z"/>
</svg>
