<svg xmlns="http://www.w3.org/2000/svg" xml:space="preserve" viewBox="0 0 890 86">
  <path fill="#227f22" d="M65 6H15C6.8 6 0 12.8 0 21v50c0 8.3 6.8 15 15 15h50c8.3 0 15-6.7 15-15V21c0-8.2-6.7-15-15-15zm90 0h-50c-8.2 0-15 6.7-15 15v50c0 8.2 6.7 15 15 15h50c8.3 0 15-6.7 15-15V21c0-8.2-6.7-15-15-15zm90 0h-50c-8.2 0-15 6.7-15 15v50c0 8.2 6.7 15 15 15h50c8.3 0 15-6.7 15-15V21c0-8.2-6.7-15-15-15zm90 0h-50c-8.2 0-15 6.7-15 15v50c0 8.2 6.7 15 15 15h50c8.3 0 15-6.7 15-15V21c0-8.2-6.7-15-15-15zm90 0h-50c-8.2 0-15 6.7-15 15v50c0 8.2 6.7 15 15 15h50c8.3 0 15-6.7 15-15V21c0-8.2-6.7-15-15-15zm90 0h-50c-8.2 0-15 6.7-15 15v50c0 8.2 6.7 15 15 15h50c8.3 0 15-6.7 15-15V21c0-8.2-6.7-15-15-15z"/>
  <path fill="#57ac57" d="M65 0H15C6.8 0 0 6.8 0 15v50c0 8.3 6.8 15 15 15h50c8.3 0 15-6.7 15-15V15c0-8.2-6.7-15-15-15zm90 0h-50c-8.2 0-15 6.7-15 15v50c0 8.2 6.7 15 15 15h50c8.3 0 15-6.7 15-15V15c0-8.2-6.7-15-15-15zm90 0h-50c-8.2 0-15 6.7-15 15v50c0 8.2 6.7 15 15 15h50c8.3 0 15-6.7 15-15V15c0-8.2-6.7-15-15-15zm90 0h-50c-8.2 0-15 6.7-15 15v50c0 8.2 6.7 15 15 15h50c8.3 0 15-6.7 15-15V15c0-8.2-6.7-15-15-15zm90 0h-50c-8.2 0-15 6.7-15 15v50c0 8.2 6.7 15 15 15h50c8.3 0 15-6.7 15-15V15c0-8.2-6.7-15-15-15zm90 0h-50c-8.2 0-15 6.7-15 15v50c0 8.2 6.7 15 15 15h50c8.3 0 15-6.7 15-15V15c0-8.2-6.7-15-15-15z"/>
  <path fill="#fff" d="M18 20c1.6 0 3.1 1.1 3.5 2.7l6.4 23.8L35 22.6c.5-1.6 1.9-2.6 3.5-2.6h4.1c1.6 0 3.1 1.1 3.6 2.6l7.3 23.9L60 22.7c.4-1.6 1.9-2.7 3.5-2.7H66c1.6 0 2.9 1.4 2.9 3 0 .2-.1.5-.1.8l-10 35.5c-.5 1.6-1.9 2.7-3.5 2.7H51c-1.2 0-2.3-.8-2.8-2l-8.1-25-8 25c-.4 1.2-1.6 2-2.8 2H25c-1.6 0-3.1-1.1-3.5-2.6L11 23.8c-.1-.3-.1-.6-.1-.9 0-1.6 1.3-2.9 2.9-2.9H18zm112.5-.7c12.8 0 22.3 8.3 22.3 21.7 0 12.7-9.5 21.7-22.3 21.7s-22.3-8.3-22.3-21.7c0-12.2 9-21.7 22.3-21.7zm0 34.4c8 0 12.1-5.6 12.1-12.7 0-7.7-5.3-12.7-12.1-12.7-7 0-12.1 5-12.1 12.7 0 7.2 5.4 12.7 12.1 12.7zm89.3-6.4h-3.5v11.9c0 1.5-1.3 2.8-2.8 2.8h-4.1c-1.5 0-2.8-1.3-2.8-2.8V22.8c0-1.5 1.3-2.8 2.8-2.8 4.1-.1 10.6-.1 11.5-.1 11.5 0 15.5 5.7 15.5 13.4 0 7.8-4.8 11-7.1 12.1l9.2 12.5c.4.5.5 1 .5 1.5 0 1.3-1.1 2.6-2.6 2.6H232c-1.3 0-2.6-.7-3.3-1.7l-8.9-13zm-.1-9c3.7 0 6.5-1.3 6.5-4.9 0-2.3-1.2-4.6-5.8-4.6-1.4 0-2.2.1-4.2.1v9.3h3.5v.1zm88.4-18.5c16.8 0 23.6 9.7 23.6 20.8 0 11.8-8 21.5-24.1 21.5-1.8 0-5.8-.1-10-.1-1.5 0-2.8-1.3-2.8-2.8V22.8c0-1.6 1.3-2.8 2.8-2.8 3.5-.1 8.4-.2 10.5-.2zM304.4 53c1.3.1 2.1.1 3.5.1 8.3 0 13.6-4.5 13.6-12.5 0-7.7-5.7-11.8-13.5-11.8-1 0-2.3 0-3.5.2v24h-.1zm112.7 6.2c0 1.5-1.3 2.8-2.8 2.8h-21.2c-1.5 0-2.8-1.3-2.8-2.8V22.8c0-1.5 1.3-2.8 2.8-2.8h4.1c1.5 0 2.8 1.3 2.8 2.8V53h14.3c1.5 0 2.8 1.3 2.8 2.8v3.4zm87.5 0c0 1.5-1.3 2.8-2.8 2.8h-20c-1.5 0-2.8-1.3-2.8-2.8V22.8c0-1.5 1.3-2.8 2.8-2.8h19.4c1.5 0 2.8 1.3 2.8 2.8v3.5c0 1.5-1.3 2.8-2.8 2.8h-12.5v7.4h10.7c1.5 0 2.8 1.3 2.8 2.8v3.5c0 1.5-1.3 2.8-2.8 2.8h-10.7V53h13.1c1.5 0 2.8 1.3 2.8 2.8v3.4z"/>
  <path fill="#a08513" d="M605 6h-50c-8.2 0-15 6.7-15 15v50c0 8.2 6.7 15 15 15h50c8.3 0 15-6.7 15-15V21c0-8.2-6.7-15-15-15zm90 0h-50c-8.2 0-15 6.7-15 15v50c0 8.2 6.7 15 15 15h50c8.3 0 15-6.7 15-15V21c0-8.2-6.7-15-15-15zm90 0h-50c-8.2 0-15 6.7-15 15v50c0 8.2 6.7 15 15 15h50c8.3 0 15-6.7 15-15V21c0-8.2-6.7-15-15-15zm90 0h-50c-8.2 0-15 6.7-15 15v50c0 8.2 6.7 15 15 15h50c8.3 0 15-6.7 15-15V21c0-8.2-6.7-15-15-15z"/>
  <path fill="#e9c601" d="M605 0h-50c-8.2 0-15 6.7-15 15v50c0 8.2 6.7 15 15 15h50c8.3 0 15-6.7 15-15V15c0-8.2-6.7-15-15-15zm90 0h-50c-8.2 0-15 6.7-15 15v50c0 8.2 6.7 15 15 15h50c8.3 0 15-6.7 15-15V15c0-8.2-6.7-15-15-15zm90 0h-50c-8.2 0-15 6.7-15 15v50c0 8.2 6.7 15 15 15h50c8.3 0 15-6.7 15-15V15c0-8.2-6.7-15-15-15zm90 0h-50c-8.2 0-15 6.7-15 15v50c0 8.2 6.7 15 15 15h50c8.3 0 15-6.7 15-15V15c0-8.2-6.7-15-15-15z"/>
  <path fill="#fff" d="M584.3 53.6c2.5 0 5.6-1.2 6.6-2.1v-4.6h-6.2c-1.5 0-2.8-1.3-2.8-2.8v-3.5c0-1.5 1.3-2.8 2.8-2.8h12.4c1.5 0 2.8 1.3 2.8 2.8v14.3c0 1.5-.8 2.6-1.6 3.2-3.8 2.9-9.5 4.6-14.1 4.6-14.4 0-22.5-8.6-22.5-21.7 0-12.1 8.1-21.7 21.3-21.7 5 0 8.3.7 11.5 2.5 1.1.6 1.7 1.6 1.7 2.6 0 .4-.1.9-.4 1.3l-1.6 2.9c-.6 1-1.5 1.6-2.5 1.6-.4 0-1-.1-1.4-.4-1.9-.9-3.8-1.4-6.1-1.4-6.9 0-12.2 4.1-12.2 12.7-.1 7.5 4.8 12.5 12.3 12.5zm78.6-.5-2.7 6.8c-.5 1.2-1.6 2-2.9 2h-3.7c-1.5 0-2.6-1.3-2.6-2.6 0-.4.1-.7.2-1l15.1-36.4c.5-1.2 1.7-2 2.9-2h4.4c1.3 0 2.4.8 2.9 2l15.1 36.4c.1.3.2.7.2 1 0 1.3-1.1 2.6-2.6 2.6h-4.3c-1.3 0-2.4-.8-2.9-2l-2.7-6.8h-16.4zm3.6-9h9.4l-4.7-11.9-4.7 11.9zm81.7 15c0 1.5-1.3 2.8-2.8 2.8h-4.1c-1.5 0-2.8-1.3-2.8-2.8V22.6c0-1.5 1.3-2.8 2.8-2.8h5c1.3 0 2.3.7 3.1 1.7l11.7 16 11-16c.7-1.1 1.7-1.7 3-1.7h4.5c1.5 0 2.8 1.3 2.8 2.8v36.5c0 1.5-1.3 2.8-2.8 2.8h-4.1c-1.5 0-2.8-1.3-2.8-2.8v-24L764 47.3c-1 1.4-2.3 2.1-3.7 2.1-1.3 0-2.6-.7-3.7-2.1l-8.7-12.1v23.9h.3zm115.6 0c0 1.5-1.3 2.8-2.8 2.8h-20c-1.5 0-2.8-1.3-2.8-2.8V22.6c0-1.5 1.3-2.8 2.8-2.8h19.4c1.5 0 2.8 1.3 2.8 2.8v3.5c0 1.5-1.3 2.8-2.8 2.8h-12.5v7.4h10.7c1.5 0 2.8 1.3 2.8 2.8v3.5c0 1.5-1.3 2.8-2.8 2.8h-10.7V53H861c1.5 0 2.8 1.3 2.8 2.8v3.3z"/>
</svg>